<svg fill="none" height="24" viewBox="0 0 24 24" width="24" xmlns="http://www.w3.org/2000/svg"><g stroke="#222"><path d="m20.6933 17.3294c.3573-1.3335.4031-2.7312.1338-4.0852-.2694-1.354-.8465-2.6278-1.6869-3.72305-.8404-1.09522-1.9215-1.98243-3.1596-2.593-1.2381-.61058-2.6001-.92815-3.9806-.92815s-2.74248.31757-3.9806.92815c-1.23812.61057-2.31919 1.49778-3.15958 2.593-.84039 1.09525-1.41757 2.36905-1.68689 3.72305s-.22356 2.7517.13374 4.0852" stroke-linecap="round"/><path d="m12.7657 15.5823c.4875.7093.1447 1.7915-.7657 2.4171-.9103.6256-2.04348.5577-2.53094-.1517-.51951-.756-2.3129-5.0068-3.40193-7.6363-.2051-.49519.40057-.9114.78935-.5424 2.06429 1.9593 5.38972 5.1573 5.90922 5.9133z"/><g stroke-linecap="round"><path d="m12 6v2"/><path d="m5.63599 8.63574 1.41421 1.41426"/><path d="m18.364 8.63574-1.4142 1.41426"/><path d="m20.6934 17.3291-1.9319-.5176"/><path d="m3.30664 17.3291 1.93185-.5176"/></g></g></svg>